<?xml version="1.0" encoding="UTF-8" standalone="no"?>
<!DOCTYPE svg PUBLIC "-//W3C//DTD SVG 1.1//EN"
 "http://www.w3.org/Graphics/SVG/1.1/DTD/svg11.dtd">
<!-- Generated by graphviz version 14.1.5 (20260411.2331)
 -->
<!-- Title: CICD_Azure_PHP Pages: 1 -->
<svg width="195pt" height="775pt"
 viewBox="0.00 0.00 195.00 775.00" xmlns="http://www.w3.org/2000/svg" xmlns:xlink="http://www.w3.org/1999/xlink">
<g id="graph0" class="graph" transform="scale(1 1) rotate(0) translate(4 771.22)">
<title>CICD_Azure_PHP</title>
<polygon fill="white" stroke="none" points="-4,4 -4,-771.22 191,-771.22 191,4 -4,4"/>
<g id="clust1" class="cluster">
<title>cluster_azure</title>
<polygon fill="none" stroke="black" stroke-dasharray="5,2" points="8.5,-159.36 8.5,-389.61 178.5,-389.61 178.5,-159.36 8.5,-159.36"/>
<text xml:space="preserve" text-anchor="middle" x="93.5" y="-372.31" font-family="Arial" font-size="14.00">Microsoft Azure</text>
</g>
<g id="clust2" class="cluster">
<title>cluster_github</title>
<polygon fill="none" stroke="black" stroke-dasharray="5,2" points="10.5,-397.61 10.5,-703.36 176.5,-703.36 176.5,-397.61 10.5,-397.61"/>
<text xml:space="preserve" text-anchor="middle" x="93.5" y="-686.06" font-family="Arial" font-size="14.00">GitHub CI/CD</text>
</g>
<!-- dev -->
<g id="node1" class="node">
<title>dev</title>
<ellipse fill="lightgreen" stroke="black" cx="93.5" cy="-739.29" rx="81.32" ry="27.93"/>
<text xml:space="preserve" text-anchor="middle" x="93.5" y="-741.74" font-family="Arial" font-size="14.00">Developer</text>
<text xml:space="preserve" text-anchor="middle" x="93.5" y="-725.99" font-family="Arial" font-size="14.00">(Code Changes)</text>
</g>
<!-- github -->
<g id="node2" class="node">
<title>github</title>
<polygon fill="lightblue" stroke="black" points="161.12,-671.61 25.88,-671.61 25.88,-632.11 161.12,-632.11 161.12,-671.61"/>
<text xml:space="preserve" text-anchor="middle" x="93.5" y="-654.31" font-family="Arial" font-size="14.00">GitHub Repository</text>
<text xml:space="preserve" text-anchor="middle" x="93.5" y="-638.56" font-family="Arial" font-size="14.00">(PHP Source Code)</text>
</g>
<!-- dev&#45;&gt;github -->
<g id="edge1" class="edge">
<title>dev&#45;&gt;github</title>
<path fill="none" stroke="black" d="M93.5,-711.26C93.5,-702.36 93.5,-692.39 93.5,-683.26"/>
<polygon fill="black" stroke="black" points="97,-683.39 93.5,-673.39 90,-683.39 97,-683.39"/>
</g>
<!-- actions -->
<g id="node3" class="node">
<title>actions</title>
<polygon fill="lightblue" stroke="black" points="150.25,-596.11 36.75,-596.11 36.75,-556.61 150.25,-556.61 150.25,-596.11"/>
<text xml:space="preserve" text-anchor="middle" x="93.5" y="-578.81" font-family="Arial" font-size="14.00">GitHub Actions</text>
<text xml:space="preserve" text-anchor="middle" x="93.5" y="-563.06" font-family="Arial" font-size="14.00">(CI/CD Pipeline)</text>
</g>
<!-- github&#45;&gt;actions -->
<g id="edge2" class="edge">
<title>github&#45;&gt;actions</title>
<path fill="none" stroke="black" d="M93.5,-631.93C93.5,-624.62 93.5,-616.06 93.5,-607.92"/>
<polygon fill="black" stroke="black" points="97,-607.99 93.5,-597.99 90,-607.99 97,-607.99"/>
</g>
<!-- build -->
<g id="node4" class="node">
<title>build</title>
<polygon fill="lightyellow" stroke="black" points="168.62,-520.61 18.38,-520.61 18.38,-481.11 168.62,-481.11 168.62,-520.61"/>
<text xml:space="preserve" text-anchor="middle" x="93.5" y="-503.31" font-family="Arial" font-size="14.00">Build Stage</text>
<text xml:space="preserve" text-anchor="middle" x="93.5" y="-487.56" font-family="Arial" font-size="14.00">(Checkout + Package)</text>
</g>
<!-- actions&#45;&gt;build -->
<g id="edge3" class="edge">
<title>actions&#45;&gt;build</title>
<path fill="none" stroke="black" d="M93.5,-556.43C93.5,-549.12 93.5,-540.56 93.5,-532.42"/>
<polygon fill="black" stroke="black" points="97,-532.49 93.5,-522.49 90,-532.49 97,-532.49"/>
</g>
<!-- artifact -->
<g id="node5" class="node">
<title>artifact</title>
<polygon fill="lightgrey" stroke="black" points="127.75,-445.11 59.25,-445.11 59.25,-405.61 127.75,-405.61 127.75,-445.11"/>
<text xml:space="preserve" text-anchor="middle" x="93.5" y="-427.81" font-family="Arial" font-size="14.00">Artifact</text>
<text xml:space="preserve" text-anchor="middle" x="93.5" y="-412.06" font-family="Arial" font-size="14.00">(app.zip)</text>
</g>
<!-- build&#45;&gt;artifact -->
<g id="edge4" class="edge">
<title>build&#45;&gt;artifact</title>
<path fill="none" stroke="black" d="M93.5,-480.93C93.5,-473.62 93.5,-465.06 93.5,-456.92"/>
<polygon fill="black" stroke="black" points="97,-456.99 93.5,-446.99 90,-456.99 97,-456.99"/>
</g>
<!-- staging -->
<g id="node6" class="node">
<title>staging</title>
<polygon fill="orange" stroke="black" points="137.88,-357.86 49.12,-357.86 49.12,-318.36 137.88,-318.36 137.88,-357.86"/>
<text xml:space="preserve" text-anchor="middle" x="93.5" y="-340.56" font-family="Arial" font-size="14.00">App Service</text>
<text xml:space="preserve" text-anchor="middle" x="93.5" y="-324.81" font-family="Arial" font-size="14.00">Staging Slot</text>
</g>
<!-- artifact&#45;&gt;staging -->
<g id="edge5" class="edge">
<title>artifact&#45;&gt;staging</title>
<path fill="none" stroke="black" d="M93.5,-405.44C93.5,-394.92 93.5,-381.57 93.5,-369.61"/>
<polygon fill="black" stroke="black" points="97,-369.79 93.5,-359.79 90,-369.79 97,-369.79"/>
</g>
<!-- production -->
<g id="node7" class="node">
<title>production</title>
<polygon fill="orange" stroke="black" points="147.25,-282.36 39.75,-282.36 39.75,-242.86 147.25,-242.86 147.25,-282.36"/>
<text xml:space="preserve" text-anchor="middle" x="93.5" y="-265.06" font-family="Arial" font-size="14.00">App Service</text>
<text xml:space="preserve" text-anchor="middle" x="93.5" y="-249.31" font-family="Arial" font-size="14.00">Production Slot</text>
</g>
<!-- staging&#45;&gt;production -->
<g id="edge6" class="edge">
<title>staging&#45;&gt;production</title>
<path fill="none" stroke="black" d="M93.5,-318.18C93.5,-310.87 93.5,-302.31 93.5,-294.17"/>
<polygon fill="black" stroke="black" points="97,-294.24 93.5,-284.24 90,-294.24 97,-294.24"/>
</g>
<!-- dns -->
<g id="node8" class="node">
<title>dns</title>
<polygon fill="lightcyan" stroke="black" points="170.88,-206.86 16.12,-206.86 16.12,-167.36 170.88,-167.36 170.88,-206.86"/>
<text xml:space="preserve" text-anchor="middle" x="93.5" y="-189.56" font-family="Arial" font-size="14.00">Azure DNS Zone</text>
<text xml:space="preserve" text-anchor="middle" x="93.5" y="-173.81" font-family="Arial" font-size="14.00">auemeribetech.com.ng</text>
</g>
<!-- production&#45;&gt;dns -->
<g id="edge7" class="edge">
<title>production&#45;&gt;dns</title>
<path fill="none" stroke="black" d="M93.5,-242.68C93.5,-235.37 93.5,-226.81 93.5,-218.67"/>
<polygon fill="black" stroke="black" points="97,-218.74 93.5,-208.74 90,-218.74 97,-218.74"/>
</g>
<!-- domain -->
<g id="node9" class="node">
<title>domain</title>
<polygon fill="lightcyan" stroke="black" points="187,-131.36 0,-131.36 0,-91.86 187,-91.86 187,-131.36"/>
<text xml:space="preserve" text-anchor="middle" x="93.5" y="-114.06" font-family="Arial" font-size="14.00">Custom Domain</text>
<text xml:space="preserve" text-anchor="middle" x="93.5" y="-98.31" font-family="Arial" font-size="14.00">www.auemeribetech.com.ng</text>
</g>
<!-- dns&#45;&gt;domain -->
<g id="edge8" class="edge">
<title>dns&#45;&gt;domain</title>
<path fill="none" stroke="black" d="M93.5,-167.18C93.5,-159.87 93.5,-151.31 93.5,-143.17"/>
<polygon fill="black" stroke="black" points="97,-143.24 93.5,-133.24 90,-143.24 97,-143.24"/>
</g>
<!-- user -->
<g id="node10" class="node">
<title>user</title>
<ellipse fill="lightgreen" stroke="black" cx="93.5" cy="-27.93" rx="52.68" ry="27.93"/>
<text xml:space="preserve" text-anchor="middle" x="93.5" y="-30.38" font-family="Arial" font-size="14.00">End User</text>
<text xml:space="preserve" text-anchor="middle" x="93.5" y="-14.63" font-family="Arial" font-size="14.00">(Browser)</text>
</g>
<!-- domain&#45;&gt;user -->
<g id="edge9" class="edge">
<title>domain&#45;&gt;user</title>
<path fill="none" stroke="black" d="M93.5,-91.67C93.5,-84.41 93.5,-75.84 93.5,-67.41"/>
<polygon fill="black" stroke="black" points="97,-67.64 93.5,-57.64 90,-67.64 97,-67.64"/>
</g>
</g>
</svg>
